<?xml version="1.0" encoding="UTF-8"?>
<svg width="199px" height="198px" viewBox="0 0 199 198" version="1.1" xmlns="http://www.w3.org/2000/svg" xmlns:xlink="http://www.w3.org/1999/xlink">
    <title>maximize-alt</title>
    <g id="Page-1" stroke="none" stroke-width="1" fill="none" fill-rule="evenodd">
        <g id="maximize-alt" transform="translate(-40, -1)" fill="#000000" fill-rule="nonzero">
            <path d="M162.358571,85.4486226 C162.683333,85.4412453 162.993333,85.4117358 163.295952,85.3674717 L163.251667,85.3748491 L229.635952,85.3748491 C229.672857,85.3748491 229.709762,85.3748491 229.754048,85.3748491 C234.411429,85.3748491 238.183095,81.6050189 238.183095,76.9499057 C238.183095,72.2947925 234.411429,68.5249623 229.754048,68.5249623 C229.709762,68.5249623 229.672857,68.5249623 229.628571,68.5249623 L182.545476,68.5249623 L235.592381,15.5038868 C237.112857,13.9767736 238.050238,11.8816038 238.050238,9.55773585 C238.050238,4.90262264 234.27119,1.13279245 229.61381,1.13279245 C227.29619,1.13279245 225.192619,2.06971698 223.672143,3.58207547 L170.625238,56.6031509 L170.625238,9.54298113 C170.625238,9.50609434 170.625238,9.46920755 170.625238,9.4249434 C170.625238,4.76983019 166.853571,1 162.19619,1 C157.53881,1 153.767143,4.76983019 153.767143,9.4249434 C153.767143,9.46920755 153.767143,9.50609434 153.767143,9.55035849 L153.767143,9.54298113 L153.767143,75.9170755 C153.722857,76.2490566 153.693333,76.6400566 153.693333,77.0310566 C153.693333,81.6861698 157.465,85.456 162.122381,85.456 C162.203571,85.456 162.292143,85.456 162.373333,85.4486226 L162.358571,85.4486226 L162.358571,85.4486226 Z M116.156667,198.986943 C120.762381,198.91317 124.467619,195.172849 124.467619,190.562 C124.467619,190.517736 124.467619,190.480849 124.467619,190.436585 L124.467619,190.443962 L124.467619,123.037038 C124.467619,123.02966 124.467619,123.022283 124.467619,123.014906 C124.467619,123.007528 124.467619,123.000151 124.467619,122.992774 L124.467619,122.992774 C124.467619,122.749321 124.452857,122.505868 124.430714,122.269792 L124.438095,122.306679 C124.430714,122.240283 124.430714,122.203396 124.430714,122.166509 L124.430714,122.196019 C124.408571,121.945189 124.371667,121.731245 124.334762,121.517302 L124.342143,121.568943 C124.32,121.436151 124.305238,121.355 124.290476,121.281226 L124.297857,121.332868 C124.120714,120.513981 123.847619,119.783623 123.493333,119.11966 L123.515476,119.163925 C123.46381,119.053264 123.426905,118.994245 123.39,118.935226 L123.412143,118.979491 C123.286667,118.75817 123.183333,118.581113 123.065238,118.404057 L123.087381,118.433566 C123.035714,118.345038 122.99881,118.293396 122.961905,118.241755 L122.984048,118.271264 C122.511667,117.599925 121.972857,117.017113 121.360238,116.52283 L121.345476,116.508075 C121.323333,116.493321 121.30119,116.463811 121.271667,116.441679 L121.264286,116.434302 C119.891429,115.34983 118.149524,114.678491 116.252619,114.634226 L116.245238,114.634226 C116.215714,114.634226 116.17881,114.634226 116.149286,114.634226 C116.119762,114.634226 116.082857,114.634226 116.045952,114.634226 L48.6135714,114.634226 C48.5766667,114.634226 48.5397619,114.634226 48.4954762,114.634226 C43.8380952,114.634226 40.0664286,118.404057 40.0664286,123.05917 C40.0664286,127.714283 43.8380952,131.484113 48.4954762,131.484113 C48.5397619,131.484113 48.5766667,131.484113 48.6209524,131.484113 L95.6966667,131.484113 L42.6571429,184.505189 C41.085,186.039679 40.1107143,188.171736 40.1107143,190.539868 C40.1107143,195.194981 43.882381,198.964811 48.5397619,198.964811 C48.6209524,198.964811 48.7095238,198.964811 48.7907143,198.957434 L48.7759524,198.957434 C51.0492857,198.891038 53.0938095,197.931981 54.57,196.419623 L107.616905,143.383792 L107.616905,190.45134 C107.616905,190.488226 107.616905,190.525113 107.616905,190.562 C107.616905,195.217113 111.395952,198.986943 116.045952,198.986943 C116.090238,198.986943 116.134524,198.986943 116.17881,198.986943 L116.171429,198.986943 L116.156667,198.986943 Z" id="Shape"></path>
        </g>
    </g>
</svg>